<svg width="1200" height="630" viewBox="0 0 1200 630" fill="none" xmlns="http://www.w3.org/2000/svg">
  <rect width="1200" height="630" rx="32" fill="#F8FAFC"/>
  <rect x="34" y="34" width="1132" height="562" rx="28" fill="url(#bg)"/>
  <circle cx="1012" cy="124" r="46" fill="#FDE68A"/>
  <circle cx="990" cy="108" r="46" fill="#DBEAFE"/>

  <rect x="112" y="124" width="456" height="356" rx="28" fill="#0F172A"/>
  <rect x="136" y="152" width="408" height="52" rx="18" fill="#1E293B"/>
  <circle cx="172" cy="178" r="10" fill="#10B981"/>
  <rect x="198" y="168" width="126" height="20" rx="10" fill="#E2E8F0" fill-opacity="0.92"/>
  <rect x="136" y="226" width="178" height="70" rx="22" fill="#F1F5F9"/>
  <rect x="154" y="244" width="126" height="12" rx="6" fill="#94A3B8"/>
  <rect x="154" y="266" width="102" height="12" rx="6" fill="#CBD5E1"/>
  <rect x="388" y="314" width="132" height="70" rx="22" fill="#2563EB"/>
  <rect x="410" y="334" width="88" height="10" rx="5" fill="#DBEAFE"/>
  <rect x="410" y="354" width="64" height="10" rx="5" fill="#BFDBFE"/>
  <rect x="136" y="404" width="166" height="56" rx="18" fill="#1E293B" stroke="#334155"/>
  <rect x="154" y="426" width="94" height="10" rx="5" fill="#64748B"/>

  <rect x="620" y="142" width="468" height="330" rx="28" fill="#FFFFFF"/>
  <rect x="652" y="174" width="216" height="28" rx="14" fill="#0F172A"/>
  <rect x="652" y="222" width="116" height="18" rx="9" fill="#94A3B8"/>
  <rect x="652" y="264" width="404" height="76" rx="24" fill="#EFF6FF"/>
  <rect x="678" y="286" width="244" height="12" rx="6" fill="#2563EB"/>
  <rect x="678" y="308" width="206" height="12" rx="6" fill="#60A5FA"/>
  <rect x="652" y="360" width="188" height="82" rx="24" fill="#F8FAFC" stroke="#E2E8F0"/>
  <rect x="676" y="384" width="104" height="12" rx="6" fill="#94A3B8"/>
  <rect x="676" y="406" width="84" height="12" rx="6" fill="#CBD5E1"/>
  <rect x="866" y="374" width="190" height="68" rx="20" fill="#DCFCE7"/>
  <rect x="892" y="394" width="114" height="12" rx="6" fill="#16A34A"/>
  <rect x="892" y="416" width="82" height="12" rx="6" fill="#4ADE80"/>

  <path d="M852 108C852 96.9543 860.954 88 872 88H1032C1043.05 88 1052 96.9543 1052 108V184C1052 195.046 1043.05 204 1032 204H938L904 232V204H872C860.954 204 852 195.046 852 184V108Z" fill="#2563EB"/>
  <rect x="886" y="124" width="126" height="14" rx="7" fill="#DBEAFE"/>
  <rect x="886" y="150" width="92" height="14" rx="7" fill="#BFDBFE"/>

  <rect x="206" y="516" width="790" height="30" rx="15" fill="#FFFFFF" fill-opacity="0.72"/>
  <rect x="226" y="525" width="236" height="12" rx="6" fill="#2563EB"/>
  <rect x="782" y="522" width="192" height="18" rx="9" fill="#0F172A"/>

  <defs>
    <linearGradient id="bg" x1="94" y1="76" x2="1116" y2="566" gradientUnits="userSpaceOnUse">
      <stop stop-color="#DBEAFE"/>
      <stop offset="0.48" stop-color="#F8FAFC"/>
      <stop offset="1" stop-color="#E2E8F0"/>
    </linearGradient>
  </defs>
</svg>
