<svg width="1200" height="630" viewBox="0 0 1200 630" fill="none" xmlns="http://www.w3.org/2000/svg">
  <rect width="1200" height="630" rx="40" fill="#F8FAFC"/>
  <rect x="76" y="62" width="1048" height="506" rx="34" fill="url(#bg)"/>
  <rect x="130" y="128" width="188" height="218" rx="24" fill="#DBEAFE"/>
  <rect x="338" y="128" width="188" height="218" rx="24" fill="#FFFFFF"/>
  <rect x="546" y="128" width="188" height="218" rx="24" fill="#FFFFFF"/>
  <rect x="754" y="128" width="188" height="218" rx="24" fill="#FFFFFF"/>
  <rect x="962" y="128" width="108" height="218" rx="24" fill="#FFFFFF"/>
  <rect x="158" y="164" width="132" height="18" rx="9" fill="#1D4ED8"/>
  <rect x="158" y="202" width="100" height="14" rx="7" fill="#2563EB"/>
  <rect x="158" y="236" width="122" height="14" rx="7" fill="#60A5FA"/>
  <rect x="158" y="282" width="92" height="38" rx="14" fill="#2563EB"/>
  <rect x="366" y="164" width="92" height="18" rx="9" fill="#0F172A"/>
  <rect x="366" y="202" width="118" height="14" rx="7" fill="#CBD5E1"/>
  <rect x="366" y="236" width="134" height="14" rx="7" fill="#CBD5E1"/>
  <rect x="366" y="270" width="108" height="14" rx="7" fill="#CBD5E1"/>
  <rect x="574" y="164" width="76" height="18" rx="9" fill="#0F172A"/>
  <rect x="574" y="202" width="132" height="14" rx="7" fill="#CBD5E1"/>
  <rect x="574" y="236" width="144" height="14" rx="7" fill="#CBD5E1"/>
  <rect x="782" y="164" width="92" height="18" rx="9" fill="#0F172A"/>
  <rect x="782" y="202" width="118" height="14" rx="7" fill="#CBD5E1"/>
  <rect x="782" y="236" width="136" height="14" rx="7" fill="#CBD5E1"/>
  <rect x="990" y="164" width="52" height="18" rx="9" fill="#0F172A"/>
  <rect x="990" y="202" width="52" height="14" rx="7" fill="#CBD5E1"/>
  <rect x="990" y="236" width="52" height="14" rx="7" fill="#CBD5E1"/>
  <text x="130" y="492" fill="#0F172A" font-family="Fraunces, serif" font-size="42" font-weight="600">Best live chat tools for small business</text>
  <text x="130" y="540" fill="#334155" font-family="DM Sans, Arial, sans-serif" font-size="28" font-weight="500">Chatting first. Enterprise bloat last.</text>
  <defs>
    <linearGradient id="bg" x1="108" y1="82" x2="1088" y2="544" gradientUnits="userSpaceOnUse">
      <stop stop-color="#EFF6FF"/>
      <stop offset="0.55" stop-color="#FFFFFF"/>
      <stop offset="1" stop-color="#FFF7ED"/>
    </linearGradient>
  </defs>
</svg>
