<svg width="1200" height="630" viewBox="0 0 1200 630" fill="none" xmlns="http://www.w3.org/2000/svg">
  <rect width="1200" height="630" rx="40" fill="#F8FAFC"/>
  <rect x="70" y="54" width="1060" height="522" rx="36" fill="url(#bg)"/>
  <rect x="120" y="120" width="292" height="96" rx="24" fill="#FFFFFF"/>
  <rect x="144" y="146" width="74" height="44" rx="12" fill="#EFF6FF"/>
  <rect x="232" y="146" width="74" height="44" rx="12" fill="#EFF6FF"/>
  <rect x="320" y="146" width="68" height="44" rx="12" fill="#DBEAFE"/>
  <rect x="120" y="248" width="360" height="190" rx="28" fill="#FFFFFF"/>
  <rect x="150" y="286" width="170" height="18" rx="9" fill="#CBD5E1"/>
  <rect x="150" y="324" width="220" height="18" rx="9" fill="#CBD5E1"/>
  <rect x="150" y="370" width="210" height="40" rx="20" fill="#EEF2FF"/>
  <text x="176" y="396" fill="#7C3AED" font-family="DM Sans, Arial, sans-serif" font-size="22" font-weight="700">✦ Suggest reply</text>
  <rect x="548" y="126" width="514" height="86" rx="28" fill="#FFFFFF"/>
  <rect x="584" y="154" width="180" height="18" rx="9" fill="#0F172A" fill-opacity="0.12"/>
  <rect x="792" y="146" width="176" height="36" rx="18" fill="#EEF2FF"/>
  <text x="826" y="170" fill="#7C3AED" font-family="DM Sans, Arial, sans-serif" font-size="18" font-weight="700">Ctrl/Cmd + J</text>
  <rect x="548" y="246" width="514" height="86" rx="28" fill="#FFFFFF"/>
  <rect x="584" y="274" width="198" height="18" rx="9" fill="#0F172A" fill-opacity="0.12"/>
  <rect x="792" y="266" width="208" height="36" rx="18" fill="#EEF2FF"/>
  <text x="816" y="290" fill="#7C3AED" font-family="DM Sans, Arial, sans-serif" font-size="18" font-weight="700">Ctrl/Cmd + Shift + S</text>
  <rect x="528" y="354" width="484" height="138" rx="30" fill="#2563EB"/>
  <text x="584" y="413" fill="white" font-family="Fraunces, serif" font-size="36" font-weight="600">Inbox shortcuts</text>
  <text x="584" y="442" fill="#BFDBFE" font-family="DM Sans, Arial, sans-serif" font-size="18" font-weight="500">Work faster without</text>
  <text x="584" y="466" fill="#BFDBFE" font-family="DM Sans, Arial, sans-serif" font-size="18" font-weight="500">leaving the keyboard</text>
  <defs>
    <linearGradient id="bg" x1="112" y1="82" x2="1088" y2="548" gradientUnits="userSpaceOnUse">
      <stop stop-color="#EFF6FF"/>
      <stop offset="0.5" stop-color="#FFFFFF"/>
      <stop offset="1" stop-color="#EEF2FF"/>
    </linearGradient>
  </defs>
</svg>
