<svg width="1200" height="630" viewBox="0 0 1200 630" fill="none" xmlns="http://www.w3.org/2000/svg">
  <defs>
    <linearGradient id="bg" x1="104" y1="82" x2="1088" y2="544" gradientUnits="userSpaceOnUse">
      <stop stop-color="#EFF6FF"/>
      <stop offset="0.5" stop-color="#FFFFFF"/>
      <stop offset="1" stop-color="#F0FDF4"/>
    </linearGradient>
  </defs>

  <rect width="1200" height="630" rx="40" fill="#F8FAFC"/>
  <rect x="74" y="62" width="1052" height="506" rx="34" fill="url(#bg)"/>

  <rect x="138" y="122" width="286" height="282" rx="30" fill="#FFFFFF"/>
  <rect x="188" y="170" width="144" height="22" rx="11" fill="#0F172A"/>
  <rect x="188" y="214" width="182" height="18" rx="9" fill="#CBD5E1"/>
  <rect x="188" y="252" width="154" height="18" rx="9" fill="#CBD5E1"/>
  <rect x="188" y="290" width="168" height="18" rx="9" fill="#CBD5E1"/>
  <rect x="188" y="340" width="94" height="18" rx="9" fill="#DBEAFE"/>

  <rect x="456" y="122" width="250" height="282" rx="30" fill="#EFF6FF"/>
  <circle cx="520" cy="180" r="16" fill="#2563EB"/>
  <rect x="552" y="170" width="96" height="20" rx="10" fill="#93C5FD"/>
  <circle cx="520" cy="254" r="16" fill="#2563EB"/>
  <rect x="552" y="244" width="126" height="20" rx="10" fill="#93C5FD"/>
  <circle cx="520" cy="328" r="16" fill="#2563EB"/>
  <rect x="552" y="318" width="108" height="20" rx="10" fill="#93C5FD"/>

  <rect x="738" y="122" width="324" height="282" rx="30" fill="#ECFDF5"/>
  <circle cx="796" cy="180" r="18" fill="#10B981"/>
  <rect x="834" y="168" width="138" height="24" rx="12" fill="#0F172A"/>
  <rect x="796" y="236" width="182" height="18" rx="9" fill="#A7F3D0"/>
  <rect x="796" y="276" width="148" height="18" rx="9" fill="#6EE7B7"/>
  <rect x="796" y="316" width="168" height="18" rx="9" fill="#A7F3D0"/>

  <text x="138" y="520" fill="#0F172A" font-family="Fraunces, serif" font-size="42" font-weight="600">Webhooks integration guide</text>
</svg>
