<svg width="1200" height="630" viewBox="0 0 1200 630" fill="none" xmlns="http://www.w3.org/2000/svg">
  <defs>
    <linearGradient id="bg" x1="104" y1="82" x2="1088" y2="544" gradientUnits="userSpaceOnUse">
      <stop stop-color="#FFF7ED"/>
      <stop offset="0.44" stop-color="#FFFFFF"/>
      <stop offset="1" stop-color="#EFF6FF"/>
    </linearGradient>
  </defs>

  <rect width="1200" height="630" rx="40" fill="#F8FAFC"/>
  <rect x="74" y="62" width="1052" height="506" rx="34" fill="url(#bg)"/>

  <rect x="138" y="122" width="408" height="282" rx="30" fill="#FFFFFF"/>
  <rect x="190" y="166" width="148" height="24" rx="12" fill="#F97316"/>
  <rect x="190" y="214" width="218" height="18" rx="9" fill="#CBD5E1"/>
  <rect x="190" y="254" width="186" height="18" rx="9" fill="#CBD5E1"/>
  <rect x="190" y="294" width="226" height="18" rx="9" fill="#CBD5E1"/>
  <rect x="190" y="334" width="164" height="18" rx="9" fill="#FED7AA"/>

  <rect x="578" y="122" width="484" height="126" rx="30" fill="#FFF7ED"/>
  <circle cx="638" cy="182" r="18" fill="#F97316"/>
  <rect x="676" y="170" width="156" height="24" rx="12" fill="#FDBA74"/>
  <rect x="850" y="173" width="154" height="18" rx="9" fill="#FED7AA"/>

  <rect x="578" y="278" width="484" height="126" rx="30" fill="#EFF6FF"/>
  <circle cx="638" cy="326" r="16" fill="#2563EB"/>
  <rect x="672" y="315" width="154" height="22" rx="11" fill="#93C5FD"/>
  <circle cx="864" cy="326" r="16" fill="#10B981"/>
  <rect x="898" y="315" width="108" height="22" rx="11" fill="#86EFAC"/>
  <rect x="672" y="358" width="182" height="18" rx="9" fill="#BFDBFE"/>

  <text x="138" y="520" fill="#0F172A" font-family="Fraunces, serif" font-size="44" font-weight="600">Zapier API reference</text>
</svg>
