<svg width="1200" height="630" viewBox="0 0 1200 630" fill="none" xmlns="http://www.w3.org/2000/svg">
  <defs>
    <linearGradient id="bg" x1="108" y1="80" x2="1094" y2="542" gradientUnits="userSpaceOnUse">
      <stop stop-color="#EFF6FF"/>
      <stop offset="0.5" stop-color="#FFFFFF"/>
      <stop offset="1" stop-color="#F8FAFC"/>
    </linearGradient>
  </defs>

  <rect width="1200" height="630" rx="40" fill="#F8FAFC"/>
  <rect x="74" y="62" width="1052" height="506" rx="34" fill="url(#bg)"/>

  <rect x="138" y="122" width="320" height="282" rx="30" fill="#DBEAFE"/>
  <rect x="492" y="122" width="300" height="132" rx="30" fill="#FFFFFF"/>
  <rect x="492" y="272" width="300" height="132" rx="30" fill="#EFF6FF"/>
  <rect x="826" y="122" width="238" height="282" rx="30" fill="#ECFDF5"/>

  <rect x="234" y="146" width="128" height="234" rx="30" fill="#0F172A"/>
  <rect x="245" y="157" width="106" height="212" rx="22" fill="#FFFFFF"/>
  <rect x="280" y="169" width="36" height="6" rx="3" fill="#CBD5E1"/>
  <rect x="261" y="192" width="66" height="34" rx="16" fill="#2563EB"/>
  <rect x="261" y="240" width="56" height="26" rx="13" fill="#F1F5F9"/>
  <rect x="283" y="280" width="44" height="26" rx="13" fill="#2563EB"/>
  <rect x="261" y="330" width="74" height="18" rx="9" fill="#E2E8F0"/>

  <rect x="548" y="162" width="116" height="24" rx="12" fill="#2563EB"/>
  <rect x="548" y="210" width="182" height="16" rx="8" fill="#CBD5E1"/>

  <circle cx="574" cy="312" r="14" fill="#2563EB"/>
  <rect x="604" y="300" width="132" height="22" rx="11" fill="#93C5FD"/>
  <circle cx="574" cy="360" r="14" fill="#10B981"/>
  <rect x="604" y="348" width="104" height="22" rx="11" fill="#86EFAC"/>

  <circle cx="884" cy="188" r="18" fill="#10B981"/>
  <rect x="918" y="176" width="92" height="24" rx="12" fill="#0F172A"/>
  <rect x="874" y="240" width="128" height="18" rx="9" fill="#A7F3D0"/>
  <rect x="874" y="278" width="94" height="18" rx="9" fill="#34D399"/>
  <rect x="874" y="316" width="110" height="18" rx="9" fill="#A7F3D0"/>

  <text x="138" y="520" fill="#0F172A" font-family="Fraunces, serif" font-size="46" font-weight="600">Add Chatting to iOS</text>
</svg>
