<svg width="1200" height="630" viewBox="0 0 1200 630" fill="none" xmlns="http://www.w3.org/2000/svg">
  <defs>
    <linearGradient id="bg" x1="104" y1="82" x2="1088" y2="544" gradientUnits="userSpaceOnUse">
      <stop stop-color="#EFF6FF"/>
      <stop offset="0.46" stop-color="#FFFFFF"/>
      <stop offset="1" stop-color="#FFF7ED"/>
    </linearGradient>
  </defs>

  <rect width="1200" height="630" rx="40" fill="#F8FAFC"/>
  <rect x="74" y="62" width="1052" height="506" rx="34" fill="url(#bg)"/>

  <rect x="138" y="122" width="270" height="282" rx="30" fill="#DBEAFE"/>
  <rect x="194" y="170" width="118" height="24" rx="12" fill="#2563EB"/>
  <rect x="194" y="222" width="174" height="18" rx="9" fill="#93C5FD"/>
  <rect x="194" y="264" width="164" height="18" rx="9" fill="#93C5FD"/>

  <rect x="438" y="122" width="324" height="282" rx="30" fill="#FFF7ED"/>
  <circle cx="500" cy="182" r="18" fill="#F97316"/>
  <rect x="536" y="170" width="136" height="24" rx="12" fill="#FDBA74"/>
  <rect x="500" y="236" width="198" height="18" rx="9" fill="#FED7AA"/>
  <rect x="500" y="276" width="156" height="18" rx="9" fill="#FED7AA"/>
  <rect x="500" y="316" width="128" height="18" rx="9" fill="#FED7AA"/>

  <rect x="792" y="122" width="270" height="282" rx="30" fill="#ECFDF5"/>
  <circle cx="850" cy="182" r="18" fill="#10B981"/>
  <rect x="886" y="170" width="122" height="24" rx="12" fill="#86EFAC"/>
  <rect x="850" y="236" width="164" height="18" rx="9" fill="#A7F3D0"/>
  <rect x="850" y="276" width="142" height="18" rx="9" fill="#A7F3D0"/>
  <rect x="850" y="316" width="178" height="18" rx="9" fill="#A7F3D0"/>

  <text x="138" y="520" fill="#0F172A" font-family="Fraunces, serif" font-size="44" font-weight="600">Zapier integration guide</text>
</svg>
