<svg width="1200" height="630" viewBox="0 0 1200 630" fill="none" xmlns="http://www.w3.org/2000/svg">
  <defs>
    <linearGradient id="bg" x1="92" y1="74" x2="1108" y2="556" gradientUnits="userSpaceOnUse">
      <stop stop-color="#EFF6FF"/>
      <stop offset="0.48" stop-color="#FFFFFF"/>
      <stop offset="1" stop-color="#F8FAFC"/>
    </linearGradient>
  </defs>

  <rect width="1200" height="630" rx="40" fill="#F8FAFC"/>
  <rect x="74" y="62" width="1052" height="506" rx="34" fill="url(#bg)"/>

  <rect x="136" y="126" width="282" height="124" rx="28" fill="#DBEAFE"/>
  <rect x="136" y="272" width="282" height="124" rx="28" fill="#FFFFFF"/>
  <rect x="458" y="126" width="282" height="270" rx="28" fill="#EFF6FF"/>
  <rect x="780" y="126" width="286" height="270" rx="28" fill="#ECFDF5"/>

  <rect x="534" y="146" width="132" height="246" rx="32" fill="#0F172A"/>
  <rect x="546" y="158" width="108" height="222" rx="24" fill="#FFFFFF"/>
  <rect x="580" y="171" width="40" height="6" rx="3" fill="#CBD5E1"/>
  <rect x="564" y="196" width="72" height="34" rx="16" fill="#2563EB"/>
  <rect x="564" y="246" width="58" height="26" rx="13" fill="#F1F5F9"/>
  <rect x="588" y="288" width="48" height="26" rx="13" fill="#2563EB"/>
  <rect x="564" y="338" width="76" height="18" rx="9" fill="#E2E8F0"/>

  <rect x="172" y="160" width="116" height="24" rx="12" fill="#0F172A"/>
  <rect x="172" y="204" width="162" height="16" rx="8" fill="#93C5FD"/>
  <rect x="172" y="306" width="104" height="24" rx="12" fill="#2563EB"/>
  <rect x="172" y="350" width="188" height="16" rx="8" fill="#CBD5E1"/>

  <circle cx="824" cy="182" r="18" fill="#10B981"/>
  <rect x="858" y="170" width="120" height="24" rx="12" fill="#0F172A"/>
  <rect x="814" y="236" width="160" height="18" rx="9" fill="#A7F3D0"/>
  <rect x="814" y="274" width="124" height="18" rx="9" fill="#34D399"/>
  <rect x="814" y="312" width="148" height="18" rx="9" fill="#A7F3D0"/>

  <text x="136" y="520" fill="#0F172A" font-family="Fraunces, serif" font-size="44" font-weight="600">Add Chatting to Expo</text>
</svg>
