<svg width="1200" height="630" viewBox="0 0 1200 630" fill="none" xmlns="http://www.w3.org/2000/svg">
  <defs>
    <linearGradient id="bg" x1="104" y1="82" x2="1088" y2="544" gradientUnits="userSpaceOnUse">
      <stop stop-color="#F0FDF4"/>
      <stop offset="0.46" stop-color="#FFFFFF"/>
      <stop offset="1" stop-color="#EFF6FF"/>
    </linearGradient>
  </defs>

  <rect width="1200" height="630" rx="40" fill="#F8FAFC"/>
  <rect x="74" y="62" width="1052" height="506" rx="34" fill="url(#bg)"/>

  <rect x="138" y="122" width="338" height="282" rx="30" fill="#ECFDF5"/>
  <rect x="194" y="166" width="206" height="20" rx="10" fill="#10B981"/>
  <rect x="194" y="214" width="182" height="18" rx="9" fill="#34D399"/>
  <rect x="194" y="258" width="148" height="18" rx="9" fill="#6EE7B7"/>
  <rect x="194" y="320" width="116" height="48" rx="16" fill="#FFFFFF"/>
  <circle cx="226" cy="344" r="14" fill="#10B981"/>
  <rect x="252" y="334" width="32" height="20" rx="10" fill="#A7F3D0"/>

  <rect x="510" y="122" width="340" height="282" rx="30" fill="#FFFFFF"/>
  <rect x="562" y="168" width="174" height="22" rx="11" fill="#0F172A"/>
  <rect x="562" y="214" width="214" height="18" rx="9" fill="#CBD5E1"/>
  <rect x="562" y="256" width="192" height="18" rx="9" fill="#CBD5E1"/>
  <rect x="562" y="314" width="142" height="44" rx="16" fill="#EFF6FF"/>
  <rect x="720" y="314" width="82" height="44" rx="16" fill="#DBEAFE"/>

  <rect x="884" y="122" width="178" height="282" rx="30" fill="#EFF6FF"/>
  <circle cx="938" cy="184" r="22" fill="#93C5FD"/>
  <rect x="974" y="172" width="44" height="24" rx="12" fill="#0F172A"/>
  <rect x="922" y="236" width="90" height="18" rx="9" fill="#CBD5E1"/>
  <rect x="922" y="276" width="74" height="18" rx="9" fill="#CBD5E1"/>

  <text x="138" y="520" fill="#0F172A" font-family="Fraunces, serif" font-size="44" font-weight="600">Shopify integration guide</text>
</svg>
