<svg width="1200" height="630" viewBox="0 0 1200 630" fill="none" xmlns="http://www.w3.org/2000/svg">
  <defs>
    <linearGradient id="bg" x1="104" y1="82" x2="1088" y2="544" gradientUnits="userSpaceOnUse">
      <stop stop-color="#F5F3FF"/>
      <stop offset="0.46" stop-color="#FFFFFF"/>
      <stop offset="1" stop-color="#EFF6FF"/>
    </linearGradient>
  </defs>

  <rect width="1200" height="630" rx="40" fill="#F8FAFC"/>
  <rect x="74" y="62" width="1052" height="506" rx="34" fill="url(#bg)"/>

  <rect x="138" y="122" width="304" height="282" rx="30" fill="#EEF2FF"/>
  <circle cx="196" cy="180" r="16" fill="#2563EB"/>
  <circle cx="240" cy="180" r="16" fill="#10B981"/>
  <circle cx="284" cy="180" r="16" fill="#F59E0B"/>
  <rect x="186" y="230" width="182" height="20" rx="10" fill="#0F172A"/>
  <rect x="186" y="274" width="208" height="18" rx="9" fill="#A5B4FC"/>
  <rect x="186" y="314" width="164" height="18" rx="9" fill="#C7D2FE"/>

  <rect x="474" y="122" width="588" height="120" rx="30" fill="#FFFFFF"/>
  <circle cx="532" cy="182" r="18" fill="#2563EB"/>
  <rect x="570" y="170" width="188" height="24" rx="12" fill="#0F172A"/>
  <rect x="782" y="173" width="194" height="18" rx="9" fill="#CBD5E1"/>

  <rect x="474" y="266" width="588" height="138" rx="30" fill="#EFF6FF"/>
  <rect x="526" y="304" width="120" height="20" rx="10" fill="#2563EB"/>
  <rect x="664" y="304" width="178" height="20" rx="10" fill="#93C5FD"/>
  <rect x="526" y="348" width="154" height="20" rx="10" fill="#10B981"/>
  <rect x="698" y="348" width="118" height="20" rx="10" fill="#86EFAC"/>

  <text x="138" y="520" fill="#0F172A" font-family="Fraunces, serif" font-size="44" font-weight="600">Connect Slack to Chatting</text>
</svg>
