<svg width="1200" height="630" viewBox="0 0 1200 630" fill="none" xmlns="http://www.w3.org/2000/svg">
  <defs>
    <linearGradient id="bg" x1="108" y1="82" x2="1088" y2="544" gradientUnits="userSpaceOnUse">
      <stop stop-color="#EFF6FF"/>
      <stop offset="0.5" stop-color="#FFFFFF"/>
      <stop offset="1" stop-color="#F8FAFC"/>
    </linearGradient>
  </defs>

  <rect width="1200" height="630" rx="40" fill="#F8FAFC"/>
  <rect x="74" y="62" width="1052" height="506" rx="34" fill="url(#bg)"/>

  <rect x="138" y="122" width="344" height="282" rx="30" fill="#FFFFFF"/>
  <rect x="182" y="160" width="74" height="52" rx="14" fill="#EFF6FF"/>
  <rect x="272" y="160" width="74" height="52" rx="14" fill="#EFF6FF"/>
  <rect x="362" y="160" width="74" height="52" rx="14" fill="#DBEAFE"/>
  <rect x="182" y="246" width="256" height="18" rx="9" fill="#CBD5E1"/>
  <rect x="182" y="286" width="224" height="18" rx="9" fill="#CBD5E1"/>
  <rect x="182" y="332" width="186" height="42" rx="21" fill="#2563EB"/>

  <rect x="516" y="122" width="546" height="116" rx="30" fill="#FFFFFF"/>
  <circle cx="574" cy="180" r="18" fill="#2563EB"/>
  <rect x="612" y="168" width="178" height="24" rx="12" fill="#0F172A"/>
  <rect x="816" y="171" width="176" height="18" rx="9" fill="#CBD5E1"/>

  <rect x="516" y="262" width="546" height="142" rx="30" fill="#EFF6FF"/>
  <rect x="568" y="304" width="142" height="20" rx="10" fill="#2563EB"/>
  <rect x="734" y="304" width="160" height="20" rx="10" fill="#93C5FD"/>
  <rect x="568" y="344" width="248" height="18" rx="9" fill="#BFDBFE"/>
  <rect x="836" y="344" width="116" height="18" rx="9" fill="#BFDBFE"/>

  <text x="138" y="520" fill="#0F172A" font-family="Fraunces, serif" font-size="44" font-weight="600">Chatting inbox shortcuts</text>
</svg>
